<svg xmlns="http://www.w3.org/2000/svg">
<defs>
<symbol id="icon-colorize" viewBox="0 0 32 32">
<path d="M27.613 7.507l-3.12-3.12c-0.52-0.52-1.36-0.52-1.88 0l-4.16 4.16-2.573-2.547-1.88 1.88 1.893 1.893-11.893 11.893v6.333h6.333l11.893-11.893 1.893 1.893 1.88-1.88-2.56-2.56 4.16-4.16c0.533-0.533 0.533-1.373 0.013-1.893zM9.227 25.333l-2.56-2.56 10.747-10.747 2.56 2.56-10.747 10.747z"></path>
</symbol>
<symbol id="icon-palette" viewBox="0 0 32 32">
<path d="M16 4c-6.627 0-12 5.373-12 12s5.373 12 12 12c1.107 0 2-0.893 2-2 0-0.52-0.2-0.987-0.52-1.347-0.307-0.347-0.507-0.813-0.507-1.32 0-1.107 0.893-2 2-2h2.36c3.68 0 6.667-2.987 6.667-6.667 0-5.893-5.373-10.667-12-10.667zM8.667 16c-1.107 0-2-0.893-2-2s0.893-2 2-2 2 0.893 2 2-0.893 2-2 2zM12.667 10.667c-1.107 0-2-0.893-2-2s0.893-2 2-2 2 0.893 2 2-0.893 2-2 2zM19.333 10.667c-1.107 0-2-0.893-2-2s0.893-2 2-2 2 0.893 2 2-0.893 2-2 2zM23.333 16c-1.107 0-2-0.893-2-2s0.893-2 2-2 2 0.893 2 2-0.893 2-2 2z"></path>
</symbol>
<symbol id="icon-eraser" viewBox="0 0 30 28">
<path d="M14 22l5.25-6h-12l-5.25 6h12zM29.828 5.172c0.313 0.719 0.187 1.547-0.328 2.141l-14 16c-0.375 0.438-0.922 0.688-1.5 0.688h-12c-0.781 0-1.5-0.453-1.828-1.172-0.313-0.719-0.187-1.547 0.328-2.141l14-16c0.375-0.438 0.922-0.688 1.5-0.688h12c0.781 0 1.5 0.453 1.828 1.172z"></path>
</symbol>
<symbol id="icon-fullscreen" viewBox="0 0 24 24">
<path d="M14.016 5.016h4.969v4.969h-1.969v-3h-3v-1.969zM17.016 17.016v-3h1.969v4.969h-4.969v-1.969h3zM5.016 9.984v-4.969h4.969v1.969h-3v3h-1.969zM6.984 14.016v3h3v1.969h-4.969v-4.969h1.969z"></path>
</symbol>
<symbol id="icon-drive_folder_upload" viewBox="0 0 24 24">
<path d="M8.016 13.031l3.984-4.031 3.984 4.031-1.406 1.406-1.594-1.594v4.172h-1.969v-4.172l-1.594 1.594zM20.016 18v-9.984h-16.031v9.984h16.031zM20.016 6q0.797 0 1.383 0.609t0.586 1.406v9.984q0 0.797-0.586 1.406t-1.383 0.609h-16.031q-0.797 0-1.383-0.609t-0.586-1.406v-12q0-0.797 0.586-1.406t1.383-0.609h6l2.016 2.016h8.016z"></path>
</symbol>
<symbol id="icon-save" viewBox="0 0 24 24">
<path d="M15 9v-3.984h-9.984v3.984h9.984zM12 18.984q1.219 0 2.109-0.891t0.891-2.109-0.891-2.109-2.109-0.891-2.109 0.891-0.891 2.109 0.891 2.109 2.109 0.891zM17.016 3l3.984 3.984v12q0 0.797-0.609 1.406t-1.406 0.609h-13.969q-0.844 0-1.43-0.586t-0.586-1.43v-13.969q0-0.844 0.586-1.43t1.43-0.586h12z"></path>
</symbol>
<symbol id="icon-undo" viewBox="0 0 24 24">
<path d="M12.516 8.016q3.422 0 6.141 2.016t3.797 5.203l-2.344 0.75q-0.797-2.438-2.883-3.961t-4.711-1.523q-2.906 0-5.156 1.875l3.656 3.609h-9v-9l3.563 3.609q2.953-2.578 6.938-2.578z"></path>
</symbol>
<symbol id="icon-redo" viewBox="0 0 24 24">
<path d="M18.422 10.594l3.563-3.609v9h-9l3.656-3.609q-2.25-1.875-5.156-1.875-2.391 0-4.617 1.594t-2.977 3.891l-2.344-0.75q1.031-3.188 3.773-5.203t6.164-2.016q3.984 0 6.938 2.578z"></path>
</symbol>
<symbol id="icon-brush" viewBox="0 0 24 24">
<path d="M20.719 4.641q0.281 0.281 0.281 0.703t-0.281 0.703l-8.953 8.953-2.766-2.766 8.953-8.953q0.281-0.281 0.703-0.281t0.703 0.281zM6.984 14.016q1.219 0 2.109 0.891t0.891 2.109q0 1.641-1.172 2.813t-2.813 1.172q-2.438 0-3.984-2.016 0.703 0 1.336-0.539t0.633-1.43q0-1.219 0.891-2.109t2.109-0.891z"></path>
</symbol>
<symbol id="icon-eyedropper" viewBox="0 0 32 32">
<path d="M30.828 1.172c-1.562-1.562-4.095-1.562-5.657 0l-5.379 5.379-3.793-3.793-4.243 4.243 3.326 3.326-14.754 14.754c-0.252 0.252-0.358 0.592-0.322 0.921h-0.008v5c0 0.552 0.448 1 1 1h5c0 0 0.083 0 0.125 0 0.288 0 0.576-0.11 0.795-0.329l14.754-14.754 3.326 3.326 4.243-4.243-3.793-3.793 5.379-5.379c1.562-1.562 1.562-4.095 0-5.657zM5.409 30h-3.409v-3.409l14.674-14.674 3.409 3.409-14.674 14.674z"></path>
</symbol>
</defs>
</svg>
